<?xml version="1.0" standalone="no"?><!-- Generator: Gravit.io --><svg xmlns="http://www.w3.org/2000/svg" xmlns:xlink="http://www.w3.org/1999/xlink" style="isolation:isolate" width="450" height="260"><path d=" M 82.57058823529417 53.52000000000001 Q 82.57058823529417 58.140000000000015 81.12941176470594 62.27000000000001 Q 79.6882352941177 66.40000000000002 77.3102941176471 69.69000000000003 Q 74.93235294117652 72.98000000000002 71.68970588235298 75.43000000000002 Q 68.44705882352946 77.88000000000002 64.98823529411769 79.14000000000001 Q 72.48235294117652 81.80000000000001 76.08529411764711 92.02000000000002 L 80.4088235294118 103.92000000000002 Q 82.85882352941182 110.92000000000002 87.61470588235301 114.28000000000003 Q 85.45294117647065 117.08000000000001 81.12941176470594 118.97000000000003 Q 76.80588235294123 120.86000000000001 71.61764705882358 120.86000000000001 Q 66.42941176470593 120.86000000000001 63.547058823529454 117.99000000000001 Q 60.66470588235298 115.12000000000002 58.21470588235298 107.98000000000002 L 53.02647058823533 93.28000000000002 Q 51.44117647058827 89.08000000000001 48.77500000000003 86.84000000000002 Q 46.108823529411794 84.60000000000002 40.77647058823532 84.60000000000002 L 34.86764705882355 84.60000000000002 L 34.86764705882355 119.60000000000002 Q 30.255882352941192 120.44000000000003 23.338235294117663 120.44000000000003 Q 16.420588235294126 120.44000000000003 11.952941176470596 119.60000000000002 L 11.952941176470596 24.680000000000007 L 12.961764705882361 23.700000000000017 Q 25.500000000000014 23.420000000000016 34.075000000000024 23.280000000000015 Q 42.65000000000003 23.140000000000015 47.55000000000003 23.140000000000015 Q 55.47647058823532 23.140000000000015 61.961764705882395 25.030000000000015 Q 68.44705882352946 26.920000000000016 72.9867647058824 30.700000000000017 Q 77.52647058823534 34.48000000000002 80.04852941176476 40.22000000000001 Q 82.57058823529417 45.96000000000002 82.57058823529417 53.52000000000001 Z  M 34.86764705882355 39.94000000000001 L 34.86764705882355 67.38000000000002 Q 41.352941176470615 67.38000000000002 45.96470588235297 67.17000000000002 Q 50.576470588235324 66.96000000000001 53.38676470588239 65.49000000000001 Q 56.197058823529446 64.02000000000001 57.63823529411768 61.360000000000014 Q 59.079411764705924 58.70000000000002 59.079411764705924 53.66000000000001 Q 59.079411764705924 40.08000000000001 45.5323529411765 40.08000000000001 Q 42.21764705882356 40.08000000000001 39.55147058823532 40.08000000000001 Q 36.885294117647085 40.08000000000001 34.86764705882355 39.94000000000001 Z  M 139.86764705882362 55.90000000000002 Q 150.2441176470589 65.98000000000002 150.2441176470589 84.74000000000001 Q 150.2441176470589 93.14000000000001 148.01029411764713 100.00000000000003 Q 145.77647058823538 106.86000000000001 141.5250000000001 111.69000000000003 Q 137.2735294117648 116.52000000000001 131.07647058823537 119.11000000000001 Q 124.87941176470595 121.70000000000002 116.80882352941184 121.70000000000002 Q 108.73823529411771 121.70000000000002 102.61323529411771 119.04000000000002 Q 96.4882352941177 116.38000000000002 92.23676470588241 111.55000000000003 Q 87.98529411764711 106.72000000000003 85.82352941176475 99.86000000000001 Q 83.6617647058824 93.00000000000003 83.6617647058824 84.74000000000001 Q 83.6617647058824 76.34000000000002 85.82352941176475 69.55000000000001 Q 87.98529411764711 62.76000000000002 92.16470588235299 57.860000000000014 Q 96.34411764705888 52.96000000000002 102.54117647058831 50.30000000000001 Q 108.73823529411771 47.640000000000015 116.80882352941184 47.640000000000015 Q 131.07647058823537 47.640000000000015 139.86764705882362 55.90000000000002 Z  M 116.95294117647067 64.02000000000001 Q 113.78235294117654 64.02000000000001 111.83676470588243 65.49000000000001 Q 109.8911764705883 66.96000000000001 108.73823529411771 69.48000000000002 Q 107.58529411764712 72.00000000000003 107.15294117647065 75.29000000000002 Q 106.72058823529419 78.58000000000001 106.72058823529419 82.36000000000001 Q 106.72058823529419 88.24000000000002 107.08088235294125 92.51000000000002 Q 107.4411764705883 96.78000000000002 108.52205882352949 99.65000000000002 Q 109.60294117647067 102.52000000000002 111.54852941176478 103.92000000000002 Q 113.49411764705889 105.32000000000002 116.66470588235302 105.32000000000002 Q 123.00588235294126 105.32000000000002 125.0235294117648 99.93000000000002 Q 127.04117647058831 94.54000000000002 127.04117647058831 84.60000000000002 Q 127.04117647058831 74.52000000000001 125.0235294117648 69.27000000000001 Q 123.00588235294126 64.02000000000001 116.95294117647067 64.02000000000001 Z  M 147.15588235294126 114.84000000000002 Q 147.3000000000001 111.20000000000002 149.10147058823537 106.86000000000001 Q 150.90294117647068 102.52000000000002 153.35294117647067 100.00000000000003 Q 164.88235294117658 105.88000000000002 173.38529411764716 105.88000000000002 Q 177.42058823529422 105.88000000000002 179.5823529411766 104.55000000000003 Q 181.74411764705894 103.22000000000003 181.74411764705894 100.98000000000002 Q 181.74411764705894 96.78000000000002 175.11470588235306 94.68000000000002 L 167.18823529411773 91.74000000000002 Q 149.17352941176478 85.30000000000001 149.17352941176478 70.74000000000001 Q 149.17352941176478 60.10000000000002 156.73970588235304 53.87000000000002 Q 164.30588235294127 47.640000000000015 177.13235294117658 47.640000000000015 Q 183.47352941176482 47.640000000000015 191.11176470588245 49.390000000000015 Q 198.75000000000014 51.140000000000015 203.65000000000012 53.52000000000001 Q 203.93823529411776 57.440000000000026 202.06470588235308 62.130000000000024 Q 200.19117647058835 66.82000000000002 197.4529411764707 68.78000000000002 Q 185.34705882352952 63.46000000000001 177.2764705882354 63.46000000000001 Q 174.39411764705892 63.46000000000001 172.88088235294126 64.72000000000003 Q 171.36764705882362 65.98000000000002 171.36764705882362 67.94000000000003 Q 171.36764705882362 71.30000000000001 176.84411764705894 73.26000000000002 L 185.77941176470597 76.34000000000002 Q 204.94705882352952 82.92000000000002 204.94705882352952 98.88000000000002 Q 204.94705882352952 109.38000000000002 197.02058823529424 115.54000000000002 Q 189.09411764705897 121.70000000000002 174.39411764705892 121.70000000000002 Q 159.6941176470589 121.70000000000002 147.15588235294126 114.84000000000002 Z  M 262.53235294117667 91.74000000000002 L 224.91764705882366 91.74000000000002 Q 225.2058823529413 98.04000000000002 228.2323529411766 101.54000000000002 Q 231.2588235294119 105.04000000000002 238.17647058823545 105.04000000000002 Q 241.63529411764722 105.04000000000002 246.17500000000015 104.06000000000002 Q 250.7147058823531 103.08000000000001 256.6235294117649 100.84000000000002 Q 261.37941176470605 105.60000000000002 262.53235294117667 113.72000000000003 Q 251.00294117647073 121.70000000000002 234.2852941176472 121.70000000000002 Q 225.2058823529413 121.70000000000002 219.08088235294133 118.90000000000003 Q 212.9558823529413 116.10000000000002 209.13676470588248 111.06000000000002 Q 205.31764705882367 106.02000000000002 203.7323529411766 99.16000000000003 Q 202.14705882352953 92.30000000000001 202.14705882352953 84.18000000000002 Q 202.14705882352953 76.34000000000002 204.09264705882367 69.69000000000003 Q 206.03823529411775 63.04000000000002 210.00147058823543 58.140000000000015 Q 213.9647058823531 53.24000000000002 220.0897058823531 50.44000000000001 Q 226.2147058823531 47.640000000000015 234.42941176470603 47.640000000000015 Q 241.34705882352955 47.640000000000015 246.89558823529427 49.88000000000001 Q 252.444117647059 52.12000000000002 256.3352941176472 56.04000000000002 Q 260.2264705882355 59.96000000000001 262.3161764705884 65.42000000000002 Q 264.4058823529413 70.88000000000002 264.4058823529413 77.32000000000002 Q 264.4058823529413 85.86000000000001 262.53235294117667 91.74000000000002 Z  M 224.77352941176486 76.62000000000002 L 243.79705882352957 76.62000000000002 L 243.79705882352957 75.08000000000001 Q 243.79705882352957 69.90000000000002 241.41911764705895 66.54000000000002 Q 239.04117647058837 63.18000000000001 234.2852941176472 63.18000000000001 Q 229.67352941176483 63.18000000000001 227.43970588235308 66.33000000000001 Q 225.2058823529413 69.48000000000002 224.77352941176486 76.62000000000002 Z  M 265.92941176470606 10.680000000000007 Q 270.2529411764708 8.16000000000001 275.8735294117649 8.16000000000001 Q 281.494117647059 8.16000000000001 285.8176470588237 10.680000000000007 Q 286.68235294117665 14.460000000000008 286.68235294117665 17.40000000000002 Q 286.68235294117665 20.340000000000018 285.6735294117649 25.24000000000001 Q 282.35882352941195 42.60000000000001 281.3500000000002 50.72000000000001 Q 279.4764705882355 51.84000000000002 275.8735294117649 51.84000000000002 Q 272.2705882352943 51.84000000000002 270.3970588235296 50.72000000000001 Q 269.6764705882355 44.70000000000002 267.2985294117649 32.52000000000001 Q 264.9205882352943 20.340000000000018 264.9205882352943 17.750000000000014 Q 264.9205882352943 15.16000000000001 265.92941176470606 10.680000000000007 Z  M 286.6205882352943 114.84000000000002 Q 286.7647058823531 111.20000000000002 288.5661764705884 106.86000000000001 Q 290.3676470588237 102.52000000000002 292.8176470588237 100.00000000000003 Q 304.3470588235296 105.88000000000002 312.85000000000025 105.88000000000002 Q 316.8852941176472 105.88000000000002 319.0470588235296 104.55000000000003 Q 321.208823529412 103.22000000000003 321.208823529412 100.98000000000002 Q 321.208823529412 96.78000000000002 314.57941176470604 94.68000000000002 L 306.6529411764708 91.74000000000002 Q 288.6382352941178 85.30000000000001 288.6382352941178 70.74000000000001 Q 288.6382352941178 60.10000000000002 296.2044117647061 53.87000000000002 Q 303.77058823529427 47.640000000000015 316.5970588235296 47.640000000000015 Q 322.9382352941178 47.640000000000015 330.5764705882355 49.390000000000015 Q 338.21470588235314 51.140000000000015 343.1147058823532 53.52000000000001 Q 343.4029411764708 57.440000000000026 341.5294117647061 62.130000000000024 Q 339.6558823529414 66.82000000000002 336.9176470588238 68.78000000000002 Q 324.8117647058826 63.46000000000001 316.7411764705884 63.46000000000001 Q 313.85882352941195 63.46000000000001 312.3455882352943 64.72000000000003 Q 310.8323529411767 65.98000000000002 310.8323529411767 67.94000000000003 Q 310.8323529411767 71.30000000000001 316.30882352941194 73.26000000000002 L 325.244117647059 76.34000000000002 Q 344.41176470588255 82.92000000000002 344.41176470588255 98.88000000000002 Q 344.41176470588255 109.38000000000002 336.4852941176473 115.54000000000002 Q 328.558823529412 121.70000000000002 313.85882352941195 121.70000000000002 Q 299.15882352941196 121.70000000000002 286.6205882352943 114.84000000000002 Z  M 75.65294117647063 216.92800000000003 Q 71.04117647058828 220.568 63.547058823529454 222.24800000000002 Q 56.052941176470625 223.92800000000003 46.97352941176474 223.92800000000003 Q 42.50588235294121 223.92800000000003 34.075000000000024 223.788 Q 25.644117647058838 223.64800000000002 12.961764705882361 223.36800000000002 L 11.952941176470596 222.38800000000003 L 11.952941176470596 128.168 L 12.961764705882361 127.18800000000002 Q 21.32058823529413 126.90800000000002 30.327941176470606 126.76800000000003 Q 39.33529411764708 126.62800000000001 49.27941176470591 126.62800000000001 Q 61.52941176470592 126.62800000000001 69.74411764705886 130.40800000000002 Q 77.95882352941182 134.18800000000002 82.85882352941182 140.76800000000003 Q 87.75882352941181 147.348 89.77647058823536 156.238 Q 91.79411764705888 165.12800000000001 91.79411764705888 175.348 Q 91.79411764705888 189.348 88.47941176470593 199.568 Q 85.16470588235299 209.788 75.65294117647063 216.92800000000003 Z  M 49.13529411764709 206.42800000000003 Q 68.1588235294118 206.42800000000003 68.1588235294118 175.348 Q 68.1588235294118 144.12800000000001 49.13529411764709 144.12800000000001 Q 44.523529411764734 144.12800000000001 40.99264705882355 144.12800000000001 Q 37.46176470588237 144.12800000000001 34.86764705882355 143.988 L 34.86764705882355 206.568 Q 37.46176470588237 206.42800000000003 40.99264705882355 206.42800000000003 Q 44.523529411764734 206.42800000000003 49.13529411764709 206.42800000000003 Z  M 156.58529411764715 213.008 Q 155.86470588235304 215.94800000000004 153.84705882352952 219.30800000000002 Q 151.82941176470598 222.66800000000003 149.66764705882363 224.20800000000003 Q 139.57941176470595 223.92800000000003 134.10294117647067 216.788 Q 124.73529411764714 225.18800000000002 113.78235294117655 225.18800000000002 Q 108.16176470588242 225.18800000000002 103.98235294117653 223.43800000000002 Q 99.80294117647065 221.68800000000002 96.92058823529418 218.74800000000002 Q 94.03823529411771 215.80800000000002 92.59705882352947 211.95800000000003 Q 91.15588235294123 208.10800000000003 91.15588235294123 203.90800000000002 Q 91.15588235294123 197.88800000000003 93.38970588235301 193.33800000000002 Q 95.62352941176478 188.788 99.51470588235301 185.77800000000002 Q 103.40588235294125 182.76800000000003 108.5941176470589 181.228 Q 113.78235294117655 179.68800000000002 119.69117647058832 179.68800000000002 Q 123.00588235294126 179.68800000000002 125.52794117647068 179.758 Q 128.05000000000007 179.82800000000003 129.92352941176478 179.96800000000002 L 129.92352941176478 177.30800000000002 Q 129.92352941176478 168.488 120.55588235294125 168.488 Q 114.50294117647067 168.488 99.37058823529419 172.96800000000002 Q 95.04705882352948 168.068 93.89411764705888 157.70800000000003 Q 97.35294117647065 156.44800000000004 101.60441176470596 155.32800000000003 Q 105.85588235294125 154.20800000000003 110.32352941176478 153.368 Q 114.79117647058831 152.52800000000002 119.11470588235302 152.038 Q 123.43823529411773 151.548 126.89705882352949 151.548 Q 131.94117647058832 151.548 136.62500000000009 152.94800000000004 Q 141.30882352941185 154.348 144.83970588235303 157.21800000000002 Q 148.37058823529424 160.08800000000002 150.46029411764718 164.63800000000003 Q 152.5500000000001 169.18800000000002 152.5500000000001 175.48800000000003 L 152.5500000000001 203.90800000000002 Q 152.5500000000001 210.348 156.58529411764715 213.008 Z  M 113.06176470588242 202.508 Q 113.06176470588242 209.08800000000002 120.84411764705891 209.08800000000002 Q 124.87941176470595 209.08800000000002 129.92352941176478 205.02800000000002 L 129.92352941176478 193.82800000000003 Q 127.04117647058831 193.68800000000002 125.0955882352942 193.61800000000002 Q 123.15000000000008 193.54800000000003 122.1411764705883 193.54800000000003 Q 113.06176470588242 193.54800000000003 113.06176470588242 202.508 Z  M 221.37647058823546 155.46800000000002 L 203.65000000000012 221.26800000000003 Q 199.47058823529423 236.38800000000003 192.5529411764707 244.50800000000004 Q 184.6264705882354 253.74800000000005 168.19705882352952 253.74800000000005 Q 159.4058823529413 253.74800000000005 150.75882352941187 250.94800000000004 Q 150.3264705882354 247.168 151.62352941176482 242.478 Q 152.92058823529422 237.788 155.2264705882354 235.26800000000003 Q 161.71176470588244 237.36800000000002 168.19705882352952 237.36800000000002 Q 178.86176470588248 237.36800000000002 182.32058823529422 226.02800000000002 L 182.89705882352953 224.068 Q 170.35882352941186 224.068 167.90882352941188 215.24800000000002 L 151.19117647058832 154.90800000000002 Q 157.82058823529422 151.96800000000002 163.58529411764718 151.96800000000002 Q 169.3500000000001 151.96800000000002 172.01617647058836 154.068 Q 174.6823529411766 156.168 175.979411764706 161.348 L 182.6088235294119 188.228 Q 183.61764705882368 192.008 185.92352941176483 206.70800000000003 Q 186.06764705882367 207.68800000000002 187.07647058823542 207.68800000000002 L 199.61470588235306 153.368 Q 203.07352941176484 152.38800000000003 208.9823529411766 152.38800000000003 Q 215.61176470588248 152.38800000000003 220.51176470588248 153.928 L 221.37647058823546 155.46800000000002 Z  M 256.3352941176472 184.168 L 256.3352941176472 182.348 Q 256.3352941176472 174.508 254.60588235294136 170.93800000000002 Q 252.87647058823546 167.36800000000002 248.1205882352943 167.36800000000002 Q 243.07647058823545 167.36800000000002 241.05882352941194 172.198 Q 239.0411764705884 177.02800000000002 239.0411764705884 188.228 Q 239.0411764705884 193.82800000000003 239.83382352941194 197.608 Q 240.62647058823546 201.38800000000003 242.1397058823531 203.69800000000004 Q 243.65294117647076 206.008 245.95882352941194 207.05800000000002 Q 248.26470588235313 208.10800000000003 251.43529411764723 208.10800000000003 Q 254.75000000000017 208.10800000000003 258.78529411764725 206.70800000000003 Q 262.8205882352943 205.30800000000002 267.43235294117665 202.228 Q 268.7294117647061 202.92800000000003 270.0985294117649 204.258 Q 271.4676470588237 205.58800000000002 272.6205882352943 207.26800000000003 Q 273.77352941176486 208.94800000000004 274.63823529411786 210.83800000000002 Q 275.50294117647076 212.728 275.93529411764723 214.40800000000002 Q 271.17941176470606 219.30800000000002 263.5411764705884 222.24800000000002 Q 255.90294117647076 225.18800000000002 247.97647058823546 225.18800000000002 Q 232.55588235294132 225.18800000000002 224.3411764705884 215.38800000000003 Q 216.12647058823543 205.58800000000002 216.12647058823543 187.52800000000002 Q 216.12647058823543 178.288 218.79264705882366 171.42800000000003 Q 221.45882352941192 164.568 225.85441176470604 160.08800000000002 Q 230.25000000000017 155.608 235.94264705882367 153.368 Q 241.63529411764725 151.12800000000001 247.83235294117662 151.12800000000001 Q 254.17352941176486 151.12800000000001 259.43382352941194 152.80800000000002 Q 264.694117647059 154.488 268.5132352941178 157.568 Q 272.3323529411767 160.64800000000002 274.4220588235296 164.918 Q 276.51176470588257 169.18800000000002 276.51176470588257 174.36800000000002 Q 276.51176470588257 180.24800000000002 272.98088235294136 182.62800000000001 Q 269.45000000000016 185.008 264.2617647058825 185.008 Q 259.9382352941178 185.008 256.3352941176472 184.168 Z  M 339.71764705882373 213.008 Q 338.99705882352964 215.94800000000004 336.97941176470613 219.30800000000002 Q 334.96176470588256 222.66800000000003 332.80000000000024 224.20800000000003 Q 322.71176470588256 223.92800000000003 317.2352941176473 216.788 Q 307.8676470588237 225.18800000000002 296.91470588235313 225.18800000000002 Q 291.29411764705907 225.18800000000002 287.1147058823532 223.43800000000002 Q 282.9352941176473 221.68800000000002 280.05294117647077 218.74800000000002 Q 277.1705882352943 215.80800000000002 275.7294117647061 211.95800000000003 Q 274.28823529411784 208.10800000000003 274.28823529411784 203.90800000000002 Q 274.28823529411784 197.88800000000003 276.5220588235296 193.33800000000002 Q 278.7558823529414 188.788 282.64705882352956 185.77800000000002 Q 286.53823529411784 182.76800000000003 291.7264705882355 181.228 Q 296.91470588235313 179.68800000000002 302.8235294117649 179.68800000000002 Q 306.1382352941178 179.68800000000002 308.66029411764725 179.758 Q 311.1823529411767 179.82800000000003 313.0558823529414 179.96800000000002 L 313.0558823529414 177.30800000000002 Q 313.0558823529414 168.488 303.6882352941178 168.488 Q 297.6352941176472 168.488 282.50294117647076 172.96800000000002 Q 278.17941176470606 168.068 277.0264705882355 157.70800000000003 Q 280.48529411764724 156.44800000000004 284.73676470588254 155.32800000000003 Q 288.9882352941178 154.20800000000003 293.4558823529414 153.368 Q 297.92352941176495 152.52800000000002 302.24705882352964 152.038 Q 306.57058823529434 151.548 310.0294117647061 151.548 Q 315.0735294117649 151.548 319.7573529411767 152.94800000000004 Q 324.44117647058846 154.348 327.97205882352966 157.21800000000002 Q 331.5029411764708 160.08800000000002 333.59264705882373 164.63800000000003 Q 335.68235294117665 169.18800000000002 335.68235294117665 175.48800000000003 L 335.68235294117665 203.90800000000002 Q 335.68235294117665 210.348 339.71764705882373 213.008 Z  M 296.19411764705904 202.508 Q 296.19411764705904 209.08800000000002 303.9764705882355 209.08800000000002 Q 308.0117647058825 209.08800000000002 313.0558823529414 205.02800000000002 L 313.0558823529414 193.82800000000003 Q 310.1735294117649 193.68800000000002 308.2279411764708 193.61800000000002 Q 306.2823529411767 193.54800000000003 305.2735294117649 193.54800000000003 Q 296.19411764705904 193.54800000000003 296.19411764705904 202.508 Z  M 337.9264705882355 163.30800000000002 Q 338.6470588235296 160.508 340.6647058823532 157.07800000000003 Q 342.68235294117665 153.64800000000002 344.70000000000016 152.108 Q 357.95882352941203 153.08800000000002 363.1470588235296 164.848 Q 368.62352941176493 152.24800000000002 381.16176470588255 152.24800000000002 Q 384.908823529412 152.24800000000002 390.67352941176495 153.368 Q 390.67352941176495 157.70800000000003 389.1602941176473 163.65800000000002 Q 387.6470588235296 169.608 385.0529411764708 173.80800000000002 Q 382.60294117647084 172.96800000000002 377.70294117647086 172.40800000000002 Q 370.49705882352964 172.40800000000002 365.8852941176473 179.548 L 365.8852941176473 223.08800000000002 Q 361.1294117647061 223.92800000000003 354.71617647058844 223.92800000000003 Q 348.30294117647077 223.92800000000003 343.4029411764708 223.08800000000002 L 343.4029411764708 177.86800000000002 Q 343.4029411764708 167.36800000000002 337.9264705882355 163.30800000000002 Z  M 445.2323529411767 195.228 L 407.61764705882376 195.228 Q 407.90588235294143 201.52800000000002 410.9323529411767 205.02800000000002 Q 413.95882352941203 208.52800000000002 420.8764705882355 208.52800000000002 Q 424.3352941176473 208.52800000000002 428.8750000000003 207.54800000000003 Q 433.4147058823532 206.568 439.323529411765 204.32800000000003 Q 444.07941176470615 209.08800000000002 445.2323529411767 217.20800000000003 Q 433.70294117647086 225.18800000000002 416.9852941176473 225.18800000000002 Q 407.90588235294143 225.18800000000002 401.7808823529414 222.38800000000003 Q 395.6558823529414 219.58800000000002 391.83676470588256 214.54800000000003 Q 388.0176470588238 209.508 386.4323529411767 202.64800000000002 Q 384.8470588235296 195.788 384.8470588235296 187.668 Q 384.8470588235296 179.82800000000003 386.7926470588237 173.17800000000003 Q 388.7382352941179 166.52800000000002 392.7014705882355 161.62800000000001 Q 396.6647058823532 156.728 402.7897058823532 153.928 Q 408.91470588235313 151.12800000000001 417.1294117647061 151.12800000000001 Q 424.04705882352965 151.12800000000001 429.5955882352944 153.368 Q 435.1441176470591 155.608 439.03529411764725 159.52800000000002 Q 442.92647058823553 163.448 445.0161764705885 168.90800000000002 Q 447.1058823529414 174.36800000000002 447.1058823529414 180.80800000000002 Q 447.1058823529414 189.348 445.2323529411767 195.228 Z  M 407.47352941176496 180.108 L 426.4970588235297 180.108 L 426.4970588235297 178.568 Q 426.4970588235297 173.38800000000003 424.1191176470591 170.02800000000002 Q 421.74117647058847 166.668 416.9852941176473 166.668 Q 412.37352941176493 166.668 410.13970588235316 169.818 Q 407.90588235294143 172.96800000000002 407.47352941176496 180.108 Z " fill-rule="evenodd" fill="rgb(7,54,66)" stroke="none"/><mask id="_mask_TP0YoiGf5PR0SORAf4VzaGH5Y7GVXeqZ"><path d=" M 82.57058823529417 53.52000000000001 Q 82.57058823529417 58.140000000000015 81.12941176470594 62.27000000000001 Q 79.6882352941177 66.40000000000002 77.3102941176471 69.69000000000003 Q 74.93235294117652 72.98000000000002 71.68970588235298 75.43000000000002 Q 68.44705882352946 77.88000000000002 64.98823529411769 79.14000000000001 Q 72.48235294117652 81.80000000000001 76.08529411764711 92.02000000000002 L 80.4088235294118 103.92000000000002 Q 82.85882352941182 110.92000000000002 87.61470588235301 114.28000000000003 Q 85.45294117647065 117.08000000000001 81.12941176470594 118.97000000000003 Q 76.80588235294123 120.86000000000001 71.61764705882358 120.86000000000001 Q 66.42941176470593 120.86000000000001 63.547058823529454 117.99000000000001 Q 60.66470588235298 115.12000000000002 58.21470588235298 107.98000000000002 L 53.02647058823533 93.28000000000002 Q 51.44117647058827 89.08000000000001 48.77500000000003 86.84000000000002 Q 46.108823529411794 84.60000000000002 40.77647058823532 84.60000000000002 L 34.86764705882355 84.60000000000002 L 34.86764705882355 119.60000000000002 Q 30.255882352941192 120.44000000000003 23.338235294117663 120.44000000000003 Q 16.420588235294126 120.44000000000003 11.952941176470596 119.60000000000002 L 11.952941176470596 24.680000000000007 L 12.961764705882361 23.700000000000017 Q 25.500000000000014 23.420000000000016 34.075000000000024 23.280000000000015 Q 42.65000000000003 23.140000000000015 47.55000000000003 23.140000000000015 Q 55.47647058823532 23.140000000000015 61.961764705882395 25.030000000000015 Q 68.44705882352946 26.920000000000016 72.9867647058824 30.700000000000017 Q 77.52647058823534 34.48000000000002 80.04852941176476 40.22000000000001 Q 82.57058823529417 45.96000000000002 82.57058823529417 53.52000000000001 Z  M 34.86764705882355 39.94000000000001 L 34.86764705882355 67.38000000000002 Q 41.352941176470615 67.38000000000002 45.96470588235297 67.17000000000002 Q 50.576470588235324 66.96000000000001 53.38676470588239 65.49000000000001 Q 56.197058823529446 64.02000000000001 57.63823529411768 61.360000000000014 Q 59.079411764705924 58.70000000000002 59.079411764705924 53.66000000000001 Q 59.079411764705924 40.08000000000001 45.5323529411765 40.08000000000001 Q 42.21764705882356 40.08000000000001 39.55147058823532 40.08000000000001 Q 36.885294117647085 40.08000000000001 34.86764705882355 39.94000000000001 Z  M 139.86764705882362 55.90000000000002 Q 150.2441176470589 65.98000000000002 150.2441176470589 84.74000000000001 Q 150.2441176470589 93.14000000000001 148.01029411764713 100.00000000000003 Q 145.77647058823538 106.86000000000001 141.5250000000001 111.69000000000003 Q 137.2735294117648 116.52000000000001 131.07647058823537 119.11000000000001 Q 124.87941176470595 121.70000000000002 116.80882352941184 121.70000000000002 Q 108.73823529411771 121.70000000000002 102.61323529411771 119.04000000000002 Q 96.4882352941177 116.38000000000002 92.23676470588241 111.55000000000003 Q 87.98529411764711 106.72000000000003 85.82352941176475 99.86000000000001 Q 83.6617647058824 93.00000000000003 83.6617647058824 84.74000000000001 Q 83.6617647058824 76.34000000000002 85.82352941176475 69.55000000000001 Q 87.98529411764711 62.76000000000002 92.16470588235299 57.860000000000014 Q 96.34411764705888 52.96000000000002 102.54117647058831 50.30000000000001 Q 108.73823529411771 47.640000000000015 116.80882352941184 47.640000000000015 Q 131.07647058823537 47.640000000000015 139.86764705882362 55.90000000000002 Z  M 116.95294117647067 64.02000000000001 Q 113.78235294117654 64.02000000000001 111.83676470588243 65.49000000000001 Q 109.8911764705883 66.96000000000001 108.73823529411771 69.48000000000002 Q 107.58529411764712 72.00000000000003 107.15294117647065 75.29000000000002 Q 106.72058823529419 78.58000000000001 106.72058823529419 82.36000000000001 Q 106.72058823529419 88.24000000000002 107.08088235294125 92.51000000000002 Q 107.4411764705883 96.78000000000002 108.52205882352949 99.65000000000002 Q 109.60294117647067 102.52000000000002 111.54852941176478 103.92000000000002 Q 113.49411764705889 105.32000000000002 116.66470588235302 105.32000000000002 Q 123.00588235294126 105.32000000000002 125.0235294117648 99.93000000000002 Q 127.04117647058831 94.54000000000002 127.04117647058831 84.60000000000002 Q 127.04117647058831 74.52000000000001 125.0235294117648 69.27000000000001 Q 123.00588235294126 64.02000000000001 116.95294117647067 64.02000000000001 Z  M 147.15588235294126 114.84000000000002 Q 147.3000000000001 111.20000000000002 149.10147058823537 106.86000000000001 Q 150.90294117647068 102.52000000000002 153.35294117647067 100.00000000000003 Q 164.88235294117658 105.88000000000002 173.38529411764716 105.88000000000002 Q 177.42058823529422 105.88000000000002 179.5823529411766 104.55000000000003 Q 181.74411764705894 103.22000000000003 181.74411764705894 100.98000000000002 Q 181.74411764705894 96.78000000000002 175.11470588235306 94.68000000000002 L 167.18823529411773 91.74000000000002 Q 149.17352941176478 85.30000000000001 149.17352941176478 70.74000000000001 Q 149.17352941176478 60.10000000000002 156.73970588235304 53.87000000000002 Q 164.30588235294127 47.640000000000015 177.13235294117658 47.640000000000015 Q 183.47352941176482 47.640000000000015 191.11176470588245 49.390000000000015 Q 198.75000000000014 51.140000000000015 203.65000000000012 53.52000000000001 Q 203.93823529411776 57.440000000000026 202.06470588235308 62.130000000000024 Q 200.19117647058835 66.82000000000002 197.4529411764707 68.78000000000002 Q 185.34705882352952 63.46000000000001 177.2764705882354 63.46000000000001 Q 174.39411764705892 63.46000000000001 172.88088235294126 64.72000000000003 Q 171.36764705882362 65.98000000000002 171.36764705882362 67.94000000000003 Q 171.36764705882362 71.30000000000001 176.84411764705894 73.26000000000002 L 185.77941176470597 76.34000000000002 Q 204.94705882352952 82.92000000000002 204.94705882352952 98.88000000000002 Q 204.94705882352952 109.38000000000002 197.02058823529424 115.54000000000002 Q 189.09411764705897 121.70000000000002 174.39411764705892 121.70000000000002 Q 159.6941176470589 121.70000000000002 147.15588235294126 114.84000000000002 Z  M 262.53235294117667 91.74000000000002 L 224.91764705882366 91.74000000000002 Q 225.2058823529413 98.04000000000002 228.2323529411766 101.54000000000002 Q 231.2588235294119 105.04000000000002 238.17647058823545 105.04000000000002 Q 241.63529411764722 105.04000000000002 246.17500000000015 104.06000000000002 Q 250.7147058823531 103.08000000000001 256.6235294117649 100.84000000000002 Q 261.37941176470605 105.60000000000002 262.53235294117667 113.72000000000003 Q 251.00294117647073 121.70000000000002 234.2852941176472 121.70000000000002 Q 225.2058823529413 121.70000000000002 219.08088235294133 118.90000000000003 Q 212.9558823529413 116.10000000000002 209.13676470588248 111.06000000000002 Q 205.31764705882367 106.02000000000002 203.7323529411766 99.16000000000003 Q 202.14705882352953 92.30000000000001 202.14705882352953 84.18000000000002 Q 202.14705882352953 76.34000000000002 204.09264705882367 69.69000000000003 Q 206.03823529411775 63.04000000000002 210.00147058823543 58.140000000000015 Q 213.9647058823531 53.24000000000002 220.0897058823531 50.44000000000001 Q 226.2147058823531 47.640000000000015 234.42941176470603 47.640000000000015 Q 241.34705882352955 47.640000000000015 246.89558823529427 49.88000000000001 Q 252.444117647059 52.12000000000002 256.3352941176472 56.04000000000002 Q 260.2264705882355 59.96000000000001 262.3161764705884 65.42000000000002 Q 264.4058823529413 70.88000000000002 264.4058823529413 77.32000000000002 Q 264.4058823529413 85.86000000000001 262.53235294117667 91.74000000000002 Z  M 224.77352941176486 76.62000000000002 L 243.79705882352957 76.62000000000002 L 243.79705882352957 75.08000000000001 Q 243.79705882352957 69.90000000000002 241.41911764705895 66.54000000000002 Q 239.04117647058837 63.18000000000001 234.2852941176472 63.18000000000001 Q 229.67352941176483 63.18000000000001 227.43970588235308 66.33000000000001 Q 225.2058823529413 69.48000000000002 224.77352941176486 76.62000000000002 Z  M 265.92941176470606 10.680000000000007 Q 270.2529411764708 8.16000000000001 275.8735294117649 8.16000000000001 Q 281.494117647059 8.16000000000001 285.8176470588237 10.680000000000007 Q 286.68235294117665 14.460000000000008 286.68235294117665 17.40000000000002 Q 286.68235294117665 20.340000000000018 285.6735294117649 25.24000000000001 Q 282.35882352941195 42.60000000000001 281.3500000000002 50.72000000000001 Q 279.4764705882355 51.84000000000002 275.8735294117649 51.84000000000002 Q 272.2705882352943 51.84000000000002 270.3970588235296 50.72000000000001 Q 269.6764705882355 44.70000000000002 267.2985294117649 32.52000000000001 Q 264.9205882352943 20.340000000000018 264.9205882352943 17.750000000000014 Q 264.9205882352943 15.16000000000001 265.92941176470606 10.680000000000007 Z  M 286.6205882352943 114.84000000000002 Q 286.7647058823531 111.20000000000002 288.5661764705884 106.86000000000001 Q 290.3676470588237 102.52000000000002 292.8176470588237 100.00000000000003 Q 304.3470588235296 105.88000000000002 312.85000000000025 105.88000000000002 Q 316.8852941176472 105.88000000000002 319.0470588235296 104.55000000000003 Q 321.208823529412 103.22000000000003 321.208823529412 100.98000000000002 Q 321.208823529412 96.78000000000002 314.57941176470604 94.68000000000002 L 306.6529411764708 91.74000000000002 Q 288.6382352941178 85.30000000000001 288.6382352941178 70.74000000000001 Q 288.6382352941178 60.10000000000002 296.2044117647061 53.87000000000002 Q 303.77058823529427 47.640000000000015 316.5970588235296 47.640000000000015 Q 322.9382352941178 47.640000000000015 330.5764705882355 49.390000000000015 Q 338.21470588235314 51.140000000000015 343.1147058823532 53.52000000000001 Q 343.4029411764708 57.440000000000026 341.5294117647061 62.130000000000024 Q 339.6558823529414 66.82000000000002 336.9176470588238 68.78000000000002 Q 324.8117647058826 63.46000000000001 316.7411764705884 63.46000000000001 Q 313.85882352941195 63.46000000000001 312.3455882352943 64.72000000000003 Q 310.8323529411767 65.98000000000002 310.8323529411767 67.94000000000003 Q 310.8323529411767 71.30000000000001 316.30882352941194 73.26000000000002 L 325.244117647059 76.34000000000002 Q 344.41176470588255 82.92000000000002 344.41176470588255 98.88000000000002 Q 344.41176470588255 109.38000000000002 336.4852941176473 115.54000000000002 Q 328.558823529412 121.70000000000002 313.85882352941195 121.70000000000002 Q 299.15882352941196 121.70000000000002 286.6205882352943 114.84000000000002 Z  M 75.65294117647063 216.92800000000003 Q 71.04117647058828 220.568 63.547058823529454 222.24800000000002 Q 56.052941176470625 223.92800000000003 46.97352941176474 223.92800000000003 Q 42.50588235294121 223.92800000000003 34.075000000000024 223.788 Q 25.644117647058838 223.64800000000002 12.961764705882361 223.36800000000002 L 11.952941176470596 222.38800000000003 L 11.952941176470596 128.168 L 12.961764705882361 127.18800000000002 Q 21.32058823529413 126.90800000000002 30.327941176470606 126.76800000000003 Q 39.33529411764708 126.62800000000001 49.27941176470591 126.62800000000001 Q 61.52941176470592 126.62800000000001 69.74411764705886 130.40800000000002 Q 77.95882352941182 134.18800000000002 82.85882352941182 140.76800000000003 Q 87.75882352941181 147.348 89.77647058823536 156.238 Q 91.79411764705888 165.12800000000001 91.79411764705888 175.348 Q 91.79411764705888 189.348 88.47941176470593 199.568 Q 85.16470588235299 209.788 75.65294117647063 216.92800000000003 Z  M 49.13529411764709 206.42800000000003 Q 68.1588235294118 206.42800000000003 68.1588235294118 175.348 Q 68.1588235294118 144.12800000000001 49.13529411764709 144.12800000000001 Q 44.523529411764734 144.12800000000001 40.99264705882355 144.12800000000001 Q 37.46176470588237 144.12800000000001 34.86764705882355 143.988 L 34.86764705882355 206.568 Q 37.46176470588237 206.42800000000003 40.99264705882355 206.42800000000003 Q 44.523529411764734 206.42800000000003 49.13529411764709 206.42800000000003 Z  M 156.58529411764715 213.008 Q 155.86470588235304 215.94800000000004 153.84705882352952 219.30800000000002 Q 151.82941176470598 222.66800000000003 149.66764705882363 224.20800000000003 Q 139.57941176470595 223.92800000000003 134.10294117647067 216.788 Q 124.73529411764714 225.18800000000002 113.78235294117655 225.18800000000002 Q 108.16176470588242 225.18800000000002 103.98235294117653 223.43800000000002 Q 99.80294117647065 221.68800000000002 96.92058823529418 218.74800000000002 Q 94.03823529411771 215.80800000000002 92.59705882352947 211.95800000000003 Q 91.15588235294123 208.10800000000003 91.15588235294123 203.90800000000002 Q 91.15588235294123 197.88800000000003 93.38970588235301 193.33800000000002 Q 95.62352941176478 188.788 99.51470588235301 185.77800000000002 Q 103.40588235294125 182.76800000000003 108.5941176470589 181.228 Q 113.78235294117655 179.68800000000002 119.69117647058832 179.68800000000002 Q 123.00588235294126 179.68800000000002 125.52794117647068 179.758 Q 128.05000000000007 179.82800000000003 129.92352941176478 179.96800000000002 L 129.92352941176478 177.30800000000002 Q 129.92352941176478 168.488 120.55588235294125 168.488 Q 114.50294117647067 168.488 99.37058823529419 172.96800000000002 Q 95.04705882352948 168.068 93.89411764705888 157.70800000000003 Q 97.35294117647065 156.44800000000004 101.60441176470596 155.32800000000003 Q 105.85588235294125 154.20800000000003 110.32352941176478 153.368 Q 114.79117647058831 152.52800000000002 119.11470588235302 152.038 Q 123.43823529411773 151.548 126.89705882352949 151.548 Q 131.94117647058832 151.548 136.62500000000009 152.94800000000004 Q 141.30882352941185 154.348 144.83970588235303 157.21800000000002 Q 148.37058823529424 160.08800000000002 150.46029411764718 164.63800000000003 Q 152.5500000000001 169.18800000000002 152.5500000000001 175.48800000000003 L 152.5500000000001 203.90800000000002 Q 152.5500000000001 210.348 156.58529411764715 213.008 Z  M 113.06176470588242 202.508 Q 113.06176470588242 209.08800000000002 120.84411764705891 209.08800000000002 Q 124.87941176470595 209.08800000000002 129.92352941176478 205.02800000000002 L 129.92352941176478 193.82800000000003 Q 127.04117647058831 193.68800000000002 125.0955882352942 193.61800000000002 Q 123.15000000000008 193.54800000000003 122.1411764705883 193.54800000000003 Q 113.06176470588242 193.54800000000003 113.06176470588242 202.508 Z  M 221.37647058823546 155.46800000000002 L 203.65000000000012 221.26800000000003 Q 199.47058823529423 236.38800000000003 192.5529411764707 244.50800000000004 Q 184.6264705882354 253.74800000000005 168.19705882352952 253.74800000000005 Q 159.4058823529413 253.74800000000005 150.75882352941187 250.94800000000004 Q 150.3264705882354 247.168 151.62352941176482 242.478 Q 152.92058823529422 237.788 155.2264705882354 235.26800000000003 Q 161.71176470588244 237.36800000000002 168.19705882352952 237.36800000000002 Q 178.86176470588248 237.36800000000002 182.32058823529422 226.02800000000002 L 182.89705882352953 224.068 Q 170.35882352941186 224.068 167.90882352941188 215.24800000000002 L 151.19117647058832 154.90800000000002 Q 157.82058823529422 151.96800000000002 163.58529411764718 151.96800000000002 Q 169.3500000000001 151.96800000000002 172.01617647058836 154.068 Q 174.6823529411766 156.168 175.979411764706 161.348 L 182.6088235294119 188.228 Q 183.61764705882368 192.008 185.92352941176483 206.70800000000003 Q 186.06764705882367 207.68800000000002 187.07647058823542 207.68800000000002 L 199.61470588235306 153.368 Q 203.07352941176484 152.38800000000003 208.9823529411766 152.38800000000003 Q 215.61176470588248 152.38800000000003 220.51176470588248 153.928 L 221.37647058823546 155.46800000000002 Z  M 256.3352941176472 184.168 L 256.3352941176472 182.348 Q 256.3352941176472 174.508 254.60588235294136 170.93800000000002 Q 252.87647058823546 167.36800000000002 248.1205882352943 167.36800000000002 Q 243.07647058823545 167.36800000000002 241.05882352941194 172.198 Q 239.0411764705884 177.02800000000002 239.0411764705884 188.228 Q 239.0411764705884 193.82800000000003 239.83382352941194 197.608 Q 240.62647058823546 201.38800000000003 242.1397058823531 203.69800000000004 Q 243.65294117647076 206.008 245.95882352941194 207.05800000000002 Q 248.26470588235313 208.10800000000003 251.43529411764723 208.10800000000003 Q 254.75000000000017 208.10800000000003 258.78529411764725 206.70800000000003 Q 262.8205882352943 205.30800000000002 267.43235294117665 202.228 Q 268.7294117647061 202.92800000000003 270.0985294117649 204.258 Q 271.4676470588237 205.58800000000002 272.6205882352943 207.26800000000003 Q 273.77352941176486 208.94800000000004 274.63823529411786 210.83800000000002 Q 275.50294117647076 212.728 275.93529411764723 214.40800000000002 Q 271.17941176470606 219.30800000000002 263.5411764705884 222.24800000000002 Q 255.90294117647076 225.18800000000002 247.97647058823546 225.18800000000002 Q 232.55588235294132 225.18800000000002 224.3411764705884 215.38800000000003 Q 216.12647058823543 205.58800000000002 216.12647058823543 187.52800000000002 Q 216.12647058823543 178.288 218.79264705882366 171.42800000000003 Q 221.45882352941192 164.568 225.85441176470604 160.08800000000002 Q 230.25000000000017 155.608 235.94264705882367 153.368 Q 241.63529411764725 151.12800000000001 247.83235294117662 151.12800000000001 Q 254.17352941176486 151.12800000000001 259.43382352941194 152.80800000000002 Q 264.694117647059 154.488 268.5132352941178 157.568 Q 272.3323529411767 160.64800000000002 274.4220588235296 164.918 Q 276.51176470588257 169.18800000000002 276.51176470588257 174.36800000000002 Q 276.51176470588257 180.24800000000002 272.98088235294136 182.62800000000001 Q 269.45000000000016 185.008 264.2617647058825 185.008 Q 259.9382352941178 185.008 256.3352941176472 184.168 Z  M 339.71764705882373 213.008 Q 338.99705882352964 215.94800000000004 336.97941176470613 219.30800000000002 Q 334.96176470588256 222.66800000000003 332.80000000000024 224.20800000000003 Q 322.71176470588256 223.92800000000003 317.2352941176473 216.788 Q 307.8676470588237 225.18800000000002 296.91470588235313 225.18800000000002 Q 291.29411764705907 225.18800000000002 287.1147058823532 223.43800000000002 Q 282.9352941176473 221.68800000000002 280.05294117647077 218.74800000000002 Q 277.1705882352943 215.80800000000002 275.7294117647061 211.95800000000003 Q 274.28823529411784 208.10800000000003 274.28823529411784 203.90800000000002 Q 274.28823529411784 197.88800000000003 276.5220588235296 193.33800000000002 Q 278.7558823529414 188.788 282.64705882352956 185.77800000000002 Q 286.53823529411784 182.76800000000003 291.7264705882355 181.228 Q 296.91470588235313 179.68800000000002 302.8235294117649 179.68800000000002 Q 306.1382352941178 179.68800000000002 308.66029411764725 179.758 Q 311.1823529411767 179.82800000000003 313.0558823529414 179.96800000000002 L 313.0558823529414 177.30800000000002 Q 313.0558823529414 168.488 303.6882352941178 168.488 Q 297.6352941176472 168.488 282.50294117647076 172.96800000000002 Q 278.17941176470606 168.068 277.0264705882355 157.70800000000003 Q 280.48529411764724 156.44800000000004 284.73676470588254 155.32800000000003 Q 288.9882352941178 154.20800000000003 293.4558823529414 153.368 Q 297.92352941176495 152.52800000000002 302.24705882352964 152.038 Q 306.57058823529434 151.548 310.0294117647061 151.548 Q 315.0735294117649 151.548 319.7573529411767 152.94800000000004 Q 324.44117647058846 154.348 327.97205882352966 157.21800000000002 Q 331.5029411764708 160.08800000000002 333.59264705882373 164.63800000000003 Q 335.68235294117665 169.18800000000002 335.68235294117665 175.48800000000003 L 335.68235294117665 203.90800000000002 Q 335.68235294117665 210.348 339.71764705882373 213.008 Z  M 296.19411764705904 202.508 Q 296.19411764705904 209.08800000000002 303.9764705882355 209.08800000000002 Q 308.0117647058825 209.08800000000002 313.0558823529414 205.02800000000002 L 313.0558823529414 193.82800000000003 Q 310.1735294117649 193.68800000000002 308.2279411764708 193.61800000000002 Q 306.2823529411767 193.54800000000003 305.2735294117649 193.54800000000003 Q 296.19411764705904 193.54800000000003 296.19411764705904 202.508 Z  M 337.9264705882355 163.30800000000002 Q 338.6470588235296 160.508 340.6647058823532 157.07800000000003 Q 342.68235294117665 153.64800000000002 344.70000000000016 152.108 Q 357.95882352941203 153.08800000000002 363.1470588235296 164.848 Q 368.62352941176493 152.24800000000002 381.16176470588255 152.24800000000002 Q 384.908823529412 152.24800000000002 390.67352941176495 153.368 Q 390.67352941176495 157.70800000000003 389.1602941176473 163.65800000000002 Q 387.6470588235296 169.608 385.0529411764708 173.80800000000002 Q 382.60294117647084 172.96800000000002 377.70294117647086 172.40800000000002 Q 370.49705882352964 172.40800000000002 365.8852941176473 179.548 L 365.8852941176473 223.08800000000002 Q 361.1294117647061 223.92800000000003 354.71617647058844 223.92800000000003 Q 348.30294117647077 223.92800000000003 343.4029411764708 223.08800000000002 L 343.4029411764708 177.86800000000002 Q 343.4029411764708 167.36800000000002 337.9264705882355 163.30800000000002 Z  M 445.2323529411767 195.228 L 407.61764705882376 195.228 Q 407.90588235294143 201.52800000000002 410.9323529411767 205.02800000000002 Q 413.95882352941203 208.52800000000002 420.8764705882355 208.52800000000002 Q 424.3352941176473 208.52800000000002 428.8750000000003 207.54800000000003 Q 433.4147058823532 206.568 439.323529411765 204.32800000000003 Q 444.07941176470615 209.08800000000002 445.2323529411767 217.20800000000003 Q 433.70294117647086 225.18800000000002 416.9852941176473 225.18800000000002 Q 407.90588235294143 225.18800000000002 401.7808823529414 222.38800000000003 Q 395.6558823529414 219.58800000000002 391.83676470588256 214.54800000000003 Q 388.0176470588238 209.508 386.4323529411767 202.64800000000002 Q 384.8470588235296 195.788 384.8470588235296 187.668 Q 384.8470588235296 179.82800000000003 386.7926470588237 173.17800000000003 Q 388.7382352941179 166.52800000000002 392.7014705882355 161.62800000000001 Q 396.6647058823532 156.728 402.7897058823532 153.928 Q 408.91470588235313 151.12800000000001 417.1294117647061 151.12800000000001 Q 424.04705882352965 151.12800000000001 429.5955882352944 153.368 Q 435.1441176470591 155.608 439.03529411764725 159.52800000000002 Q 442.92647058823553 163.448 445.0161764705885 168.90800000000002 Q 447.1058823529414 174.36800000000002 447.1058823529414 180.80800000000002 Q 447.1058823529414 189.348 445.2323529411767 195.228 Z  M 407.47352941176496 180.108 L 426.4970588235297 180.108 L 426.4970588235297 178.568 Q 426.4970588235297 173.38800000000003 424.1191176470591 170.02800000000002 Q 421.74117647058847 166.668 416.9852941176473 166.668 Q 412.37352941176493 166.668 410.13970588235316 169.818 Q 407.90588235294143 172.96800000000002 407.47352941176496 180.108 Z " fill-rule="evenodd" fill="white" stroke="none"/></mask><path d=" M 82.57058823529417 53.52000000000001 Q 82.57058823529417 58.140000000000015 81.12941176470594 62.27000000000001 Q 79.6882352941177 66.40000000000002 77.3102941176471 69.69000000000003 Q 74.93235294117652 72.98000000000002 71.68970588235298 75.43000000000002 Q 68.44705882352946 77.88000000000002 64.98823529411769 79.14000000000001 Q 72.48235294117652 81.80000000000001 76.08529411764711 92.02000000000002 L 80.4088235294118 103.92000000000002 Q 82.85882352941182 110.92000000000002 87.61470588235301 114.28000000000003 Q 85.45294117647065 117.08000000000001 81.12941176470594 118.97000000000003 Q 76.80588235294123 120.86000000000001 71.61764705882358 120.86000000000001 Q 66.42941176470593 120.86000000000001 63.547058823529454 117.99000000000001 Q 60.66470588235298 115.12000000000002 58.21470588235298 107.98000000000002 L 53.02647058823533 93.28000000000002 Q 51.44117647058827 89.08000000000001 48.77500000000003 86.84000000000002 Q 46.108823529411794 84.60000000000002 40.77647058823532 84.60000000000002 L 34.86764705882355 84.60000000000002 L 34.86764705882355 119.60000000000002 Q 30.255882352941192 120.44000000000003 23.338235294117663 120.44000000000003 Q 16.420588235294126 120.44000000000003 11.952941176470596 119.60000000000002 L 11.952941176470596 24.680000000000007 L 12.961764705882361 23.700000000000017 Q 25.500000000000014 23.420000000000016 34.075000000000024 23.280000000000015 Q 42.65000000000003 23.140000000000015 47.55000000000003 23.140000000000015 Q 55.47647058823532 23.140000000000015 61.961764705882395 25.030000000000015 Q 68.44705882352946 26.920000000000016 72.9867647058824 30.700000000000017 Q 77.52647058823534 34.48000000000002 80.04852941176476 40.22000000000001 Q 82.57058823529417 45.96000000000002 82.57058823529417 53.52000000000001 Z  M 34.86764705882355 39.94000000000001 L 34.86764705882355 67.38000000000002 Q 41.352941176470615 67.38000000000002 45.96470588235297 67.17000000000002 Q 50.576470588235324 66.96000000000001 53.38676470588239 65.49000000000001 Q 56.197058823529446 64.02000000000001 57.63823529411768 61.360000000000014 Q 59.079411764705924 58.70000000000002 59.079411764705924 53.66000000000001 Q 59.079411764705924 40.08000000000001 45.5323529411765 40.08000000000001 Q 42.21764705882356 40.08000000000001 39.55147058823532 40.08000000000001 Q 36.885294117647085 40.08000000000001 34.86764705882355 39.94000000000001 Z  M 139.86764705882362 55.90000000000002 Q 150.2441176470589 65.98000000000002 150.2441176470589 84.74000000000001 Q 150.2441176470589 93.14000000000001 148.01029411764713 100.00000000000003 Q 145.77647058823538 106.86000000000001 141.5250000000001 111.69000000000003 Q 137.2735294117648 116.52000000000001 131.07647058823537 119.11000000000001 Q 124.87941176470595 121.70000000000002 116.80882352941184 121.70000000000002 Q 108.73823529411771 121.70000000000002 102.61323529411771 119.04000000000002 Q 96.4882352941177 116.38000000000002 92.23676470588241 111.55000000000003 Q 87.98529411764711 106.72000000000003 85.82352941176475 99.86000000000001 Q 83.6617647058824 93.00000000000003 83.6617647058824 84.74000000000001 Q 83.6617647058824 76.34000000000002 85.82352941176475 69.55000000000001 Q 87.98529411764711 62.76000000000002 92.16470588235299 57.860000000000014 Q 96.34411764705888 52.96000000000002 102.54117647058831 50.30000000000001 Q 108.73823529411771 47.640000000000015 116.80882352941184 47.640000000000015 Q 131.07647058823537 47.640000000000015 139.86764705882362 55.90000000000002 Z  M 116.95294117647067 64.02000000000001 Q 113.78235294117654 64.02000000000001 111.83676470588243 65.49000000000001 Q 109.8911764705883 66.96000000000001 108.73823529411771 69.48000000000002 Q 107.58529411764712 72.00000000000003 107.15294117647065 75.29000000000002 Q 106.72058823529419 78.58000000000001 106.72058823529419 82.36000000000001 Q 106.72058823529419 88.24000000000002 107.08088235294125 92.51000000000002 Q 107.4411764705883 96.78000000000002 108.52205882352949 99.65000000000002 Q 109.60294117647067 102.52000000000002 111.54852941176478 103.92000000000002 Q 113.49411764705889 105.32000000000002 116.66470588235302 105.32000000000002 Q 123.00588235294126 105.32000000000002 125.0235294117648 99.93000000000002 Q 127.04117647058831 94.54000000000002 127.04117647058831 84.60000000000002 Q 127.04117647058831 74.52000000000001 125.0235294117648 69.27000000000001 Q 123.00588235294126 64.02000000000001 116.95294117647067 64.02000000000001 Z  M 147.15588235294126 114.84000000000002 Q 147.3000000000001 111.20000000000002 149.10147058823537 106.86000000000001 Q 150.90294117647068 102.52000000000002 153.35294117647067 100.00000000000003 Q 164.88235294117658 105.88000000000002 173.38529411764716 105.88000000000002 Q 177.42058823529422 105.88000000000002 179.5823529411766 104.55000000000003 Q 181.74411764705894 103.22000000000003 181.74411764705894 100.98000000000002 Q 181.74411764705894 96.78000000000002 175.11470588235306 94.68000000000002 L 167.18823529411773 91.74000000000002 Q 149.17352941176478 85.30000000000001 149.17352941176478 70.74000000000001 Q 149.17352941176478 60.10000000000002 156.73970588235304 53.87000000000002 Q 164.30588235294127 47.640000000000015 177.13235294117658 47.640000000000015 Q 183.47352941176482 47.640000000000015 191.11176470588245 49.390000000000015 Q 198.75000000000014 51.140000000000015 203.65000000000012 53.52000000000001 Q 203.93823529411776 57.440000000000026 202.06470588235308 62.130000000000024 Q 200.19117647058835 66.82000000000002 197.4529411764707 68.78000000000002 Q 185.34705882352952 63.46000000000001 177.2764705882354 63.46000000000001 Q 174.39411764705892 63.46000000000001 172.88088235294126 64.72000000000003 Q 171.36764705882362 65.98000000000002 171.36764705882362 67.94000000000003 Q 171.36764705882362 71.30000000000001 176.84411764705894 73.26000000000002 L 185.77941176470597 76.34000000000002 Q 204.94705882352952 82.92000000000002 204.94705882352952 98.88000000000002 Q 204.94705882352952 109.38000000000002 197.02058823529424 115.54000000000002 Q 189.09411764705897 121.70000000000002 174.39411764705892 121.70000000000002 Q 159.6941176470589 121.70000000000002 147.15588235294126 114.84000000000002 Z  M 262.53235294117667 91.74000000000002 L 224.91764705882366 91.74000000000002 Q 225.2058823529413 98.04000000000002 228.2323529411766 101.54000000000002 Q 231.2588235294119 105.04000000000002 238.17647058823545 105.04000000000002 Q 241.63529411764722 105.04000000000002 246.17500000000015 104.06000000000002 Q 250.7147058823531 103.08000000000001 256.6235294117649 100.84000000000002 Q 261.37941176470605 105.60000000000002 262.53235294117667 113.72000000000003 Q 251.00294117647073 121.70000000000002 234.2852941176472 121.70000000000002 Q 225.2058823529413 121.70000000000002 219.08088235294133 118.90000000000003 Q 212.9558823529413 116.10000000000002 209.13676470588248 111.06000000000002 Q 205.31764705882367 106.02000000000002 203.7323529411766 99.16000000000003 Q 202.14705882352953 92.30000000000001 202.14705882352953 84.18000000000002 Q 202.14705882352953 76.34000000000002 204.09264705882367 69.69000000000003 Q 206.03823529411775 63.04000000000002 210.00147058823543 58.140000000000015 Q 213.9647058823531 53.24000000000002 220.0897058823531 50.44000000000001 Q 226.2147058823531 47.640000000000015 234.42941176470603 47.640000000000015 Q 241.34705882352955 47.640000000000015 246.89558823529427 49.88000000000001 Q 252.444117647059 52.12000000000002 256.3352941176472 56.04000000000002 Q 260.2264705882355 59.96000000000001 262.3161764705884 65.42000000000002 Q 264.4058823529413 70.88000000000002 264.4058823529413 77.32000000000002 Q 264.4058823529413 85.86000000000001 262.53235294117667 91.74000000000002 Z  M 224.77352941176486 76.62000000000002 L 243.79705882352957 76.62000000000002 L 243.79705882352957 75.08000000000001 Q 243.79705882352957 69.90000000000002 241.41911764705895 66.54000000000002 Q 239.04117647058837 63.18000000000001 234.2852941176472 63.18000000000001 Q 229.67352941176483 63.18000000000001 227.43970588235308 66.33000000000001 Q 225.2058823529413 69.48000000000002 224.77352941176486 76.62000000000002 Z  M 265.92941176470606 10.680000000000007 Q 270.2529411764708 8.16000000000001 275.8735294117649 8.16000000000001 Q 281.494117647059 8.16000000000001 285.8176470588237 10.680000000000007 Q 286.68235294117665 14.460000000000008 286.68235294117665 17.40000000000002 Q 286.68235294117665 20.340000000000018 285.6735294117649 25.24000000000001 Q 282.35882352941195 42.60000000000001 281.3500000000002 50.72000000000001 Q 279.4764705882355 51.84000000000002 275.8735294117649 51.84000000000002 Q 272.2705882352943 51.84000000000002 270.3970588235296 50.72000000000001 Q 269.6764705882355 44.70000000000002 267.2985294117649 32.52000000000001 Q 264.9205882352943 20.340000000000018 264.9205882352943 17.750000000000014 Q 264.9205882352943 15.16000000000001 265.92941176470606 10.680000000000007 Z  M 286.6205882352943 114.84000000000002 Q 286.7647058823531 111.20000000000002 288.5661764705884 106.86000000000001 Q 290.3676470588237 102.52000000000002 292.8176470588237 100.00000000000003 Q 304.3470588235296 105.88000000000002 312.85000000000025 105.88000000000002 Q 316.8852941176472 105.88000000000002 319.0470588235296 104.55000000000003 Q 321.208823529412 103.22000000000003 321.208823529412 100.98000000000002 Q 321.208823529412 96.78000000000002 314.57941176470604 94.68000000000002 L 306.6529411764708 91.74000000000002 Q 288.6382352941178 85.30000000000001 288.6382352941178 70.74000000000001 Q 288.6382352941178 60.10000000000002 296.2044117647061 53.87000000000002 Q 303.77058823529427 47.640000000000015 316.5970588235296 47.640000000000015 Q 322.9382352941178 47.640000000000015 330.5764705882355 49.390000000000015 Q 338.21470588235314 51.140000000000015 343.1147058823532 53.52000000000001 Q 343.4029411764708 57.440000000000026 341.5294117647061 62.130000000000024 Q 339.6558823529414 66.82000000000002 336.9176470588238 68.78000000000002 Q 324.8117647058826 63.46000000000001 316.7411764705884 63.46000000000001 Q 313.85882352941195 63.46000000000001 312.3455882352943 64.72000000000003 Q 310.8323529411767 65.98000000000002 310.8323529411767 67.94000000000003 Q 310.8323529411767 71.30000000000001 316.30882352941194 73.26000000000002 L 325.244117647059 76.34000000000002 Q 344.41176470588255 82.92000000000002 344.41176470588255 98.88000000000002 Q 344.41176470588255 109.38000000000002 336.4852941176473 115.54000000000002 Q 328.558823529412 121.70000000000002 313.85882352941195 121.70000000000002 Q 299.15882352941196 121.70000000000002 286.6205882352943 114.84000000000002 Z  M 75.65294117647063 216.92800000000003 Q 71.04117647058828 220.568 63.547058823529454 222.24800000000002 Q 56.052941176470625 223.92800000000003 46.97352941176474 223.92800000000003 Q 42.50588235294121 223.92800000000003 34.075000000000024 223.788 Q 25.644117647058838 223.64800000000002 12.961764705882361 223.36800000000002 L 11.952941176470596 222.38800000000003 L 11.952941176470596 128.168 L 12.961764705882361 127.18800000000002 Q 21.32058823529413 126.90800000000002 30.327941176470606 126.76800000000003 Q 39.33529411764708 126.62800000000001 49.27941176470591 126.62800000000001 Q 61.52941176470592 126.62800000000001 69.74411764705886 130.40800000000002 Q 77.95882352941182 134.18800000000002 82.85882352941182 140.76800000000003 Q 87.75882352941181 147.348 89.77647058823536 156.238 Q 91.79411764705888 165.12800000000001 91.79411764705888 175.348 Q 91.79411764705888 189.348 88.47941176470593 199.568 Q 85.16470588235299 209.788 75.65294117647063 216.92800000000003 Z  M 49.13529411764709 206.42800000000003 Q 68.1588235294118 206.42800000000003 68.1588235294118 175.348 Q 68.1588235294118 144.12800000000001 49.13529411764709 144.12800000000001 Q 44.523529411764734 144.12800000000001 40.99264705882355 144.12800000000001 Q 37.46176470588237 144.12800000000001 34.86764705882355 143.988 L 34.86764705882355 206.568 Q 37.46176470588237 206.42800000000003 40.99264705882355 206.42800000000003 Q 44.523529411764734 206.42800000000003 49.13529411764709 206.42800000000003 Z  M 156.58529411764715 213.008 Q 155.86470588235304 215.94800000000004 153.84705882352952 219.30800000000002 Q 151.82941176470598 222.66800000000003 149.66764705882363 224.20800000000003 Q 139.57941176470595 223.92800000000003 134.10294117647067 216.788 Q 124.73529411764714 225.18800000000002 113.78235294117655 225.18800000000002 Q 108.16176470588242 225.18800000000002 103.98235294117653 223.43800000000002 Q 99.80294117647065 221.68800000000002 96.92058823529418 218.74800000000002 Q 94.03823529411771 215.80800000000002 92.59705882352947 211.95800000000003 Q 91.15588235294123 208.10800000000003 91.15588235294123 203.90800000000002 Q 91.15588235294123 197.88800000000003 93.38970588235301 193.33800000000002 Q 95.62352941176478 188.788 99.51470588235301 185.77800000000002 Q 103.40588235294125 182.76800000000003 108.5941176470589 181.228 Q 113.78235294117655 179.68800000000002 119.69117647058832 179.68800000000002 Q 123.00588235294126 179.68800000000002 125.52794117647068 179.758 Q 128.05000000000007 179.82800000000003 129.92352941176478 179.96800000000002 L 129.92352941176478 177.30800000000002 Q 129.92352941176478 168.488 120.55588235294125 168.488 Q 114.50294117647067 168.488 99.37058823529419 172.96800000000002 Q 95.04705882352948 168.068 93.89411764705888 157.70800000000003 Q 97.35294117647065 156.44800000000004 101.60441176470596 155.32800000000003 Q 105.85588235294125 154.20800000000003 110.32352941176478 153.368 Q 114.79117647058831 152.52800000000002 119.11470588235302 152.038 Q 123.43823529411773 151.548 126.89705882352949 151.548 Q 131.94117647058832 151.548 136.62500000000009 152.94800000000004 Q 141.30882352941185 154.348 144.83970588235303 157.21800000000002 Q 148.37058823529424 160.08800000000002 150.46029411764718 164.63800000000003 Q 152.5500000000001 169.18800000000002 152.5500000000001 175.48800000000003 L 152.5500000000001 203.90800000000002 Q 152.5500000000001 210.348 156.58529411764715 213.008 Z  M 113.06176470588242 202.508 Q 113.06176470588242 209.08800000000002 120.84411764705891 209.08800000000002 Q 124.87941176470595 209.08800000000002 129.92352941176478 205.02800000000002 L 129.92352941176478 193.82800000000003 Q 127.04117647058831 193.68800000000002 125.0955882352942 193.61800000000002 Q 123.15000000000008 193.54800000000003 122.1411764705883 193.54800000000003 Q 113.06176470588242 193.54800000000003 113.06176470588242 202.508 Z  M 221.37647058823546 155.46800000000002 L 203.65000000000012 221.26800000000003 Q 199.47058823529423 236.38800000000003 192.5529411764707 244.50800000000004 Q 184.6264705882354 253.74800000000005 168.19705882352952 253.74800000000005 Q 159.4058823529413 253.74800000000005 150.75882352941187 250.94800000000004 Q 150.3264705882354 247.168 151.62352941176482 242.478 Q 152.92058823529422 237.788 155.2264705882354 235.26800000000003 Q 161.71176470588244 237.36800000000002 168.19705882352952 237.36800000000002 Q 178.86176470588248 237.36800000000002 182.32058823529422 226.02800000000002 L 182.89705882352953 224.068 Q 170.35882352941186 224.068 167.90882352941188 215.24800000000002 L 151.19117647058832 154.90800000000002 Q 157.82058823529422 151.96800000000002 163.58529411764718 151.96800000000002 Q 169.3500000000001 151.96800000000002 172.01617647058836 154.068 Q 174.6823529411766 156.168 175.979411764706 161.348 L 182.6088235294119 188.228 Q 183.61764705882368 192.008 185.92352941176483 206.70800000000003 Q 186.06764705882367 207.68800000000002 187.07647058823542 207.68800000000002 L 199.61470588235306 153.368 Q 203.07352941176484 152.38800000000003 208.9823529411766 152.38800000000003 Q 215.61176470588248 152.38800000000003 220.51176470588248 153.928 L 221.37647058823546 155.46800000000002 Z  M 256.3352941176472 184.168 L 256.3352941176472 182.348 Q 256.3352941176472 174.508 254.60588235294136 170.93800000000002 Q 252.87647058823546 167.36800000000002 248.1205882352943 167.36800000000002 Q 243.07647058823545 167.36800000000002 241.05882352941194 172.198 Q 239.0411764705884 177.02800000000002 239.0411764705884 188.228 Q 239.0411764705884 193.82800000000003 239.83382352941194 197.608 Q 240.62647058823546 201.38800000000003 242.1397058823531 203.69800000000004 Q 243.65294117647076 206.008 245.95882352941194 207.05800000000002 Q 248.26470588235313 208.10800000000003 251.43529411764723 208.10800000000003 Q 254.75000000000017 208.10800000000003 258.78529411764725 206.70800000000003 Q 262.8205882352943 205.30800000000002 267.43235294117665 202.228 Q 268.7294117647061 202.92800000000003 270.0985294117649 204.258 Q 271.4676470588237 205.58800000000002 272.6205882352943 207.26800000000003 Q 273.77352941176486 208.94800000000004 274.63823529411786 210.83800000000002 Q 275.50294117647076 212.728 275.93529411764723 214.40800000000002 Q 271.17941176470606 219.30800000000002 263.5411764705884 222.24800000000002 Q 255.90294117647076 225.18800000000002 247.97647058823546 225.18800000000002 Q 232.55588235294132 225.18800000000002 224.3411764705884 215.38800000000003 Q 216.12647058823543 205.58800000000002 216.12647058823543 187.52800000000002 Q 216.12647058823543 178.288 218.79264705882366 171.42800000000003 Q 221.45882352941192 164.568 225.85441176470604 160.08800000000002 Q 230.25000000000017 155.608 235.94264705882367 153.368 Q 241.63529411764725 151.12800000000001 247.83235294117662 151.12800000000001 Q 254.17352941176486 151.12800000000001 259.43382352941194 152.80800000000002 Q 264.694117647059 154.488 268.5132352941178 157.568 Q 272.3323529411767 160.64800000000002 274.4220588235296 164.918 Q 276.51176470588257 169.18800000000002 276.51176470588257 174.36800000000002 Q 276.51176470588257 180.24800000000002 272.98088235294136 182.62800000000001 Q 269.45000000000016 185.008 264.2617647058825 185.008 Q 259.9382352941178 185.008 256.3352941176472 184.168 Z  M 339.71764705882373 213.008 Q 338.99705882352964 215.94800000000004 336.97941176470613 219.30800000000002 Q 334.96176470588256 222.66800000000003 332.80000000000024 224.20800000000003 Q 322.71176470588256 223.92800000000003 317.2352941176473 216.788 Q 307.8676470588237 225.18800000000002 296.91470588235313 225.18800000000002 Q 291.29411764705907 225.18800000000002 287.1147058823532 223.43800000000002 Q 282.9352941176473 221.68800000000002 280.05294117647077 218.74800000000002 Q 277.1705882352943 215.80800000000002 275.7294117647061 211.95800000000003 Q 274.28823529411784 208.10800000000003 274.28823529411784 203.90800000000002 Q 274.28823529411784 197.88800000000003 276.5220588235296 193.33800000000002 Q 278.7558823529414 188.788 282.64705882352956 185.77800000000002 Q 286.53823529411784 182.76800000000003 291.7264705882355 181.228 Q 296.91470588235313 179.68800000000002 302.8235294117649 179.68800000000002 Q 306.1382352941178 179.68800000000002 308.66029411764725 179.758 Q 311.1823529411767 179.82800000000003 313.0558823529414 179.96800000000002 L 313.0558823529414 177.30800000000002 Q 313.0558823529414 168.488 303.6882352941178 168.488 Q 297.6352941176472 168.488 282.50294117647076 172.96800000000002 Q 278.17941176470606 168.068 277.0264705882355 157.70800000000003 Q 280.48529411764724 156.44800000000004 284.73676470588254 155.32800000000003 Q 288.9882352941178 154.20800000000003 293.4558823529414 153.368 Q 297.92352941176495 152.52800000000002 302.24705882352964 152.038 Q 306.57058823529434 151.548 310.0294117647061 151.548 Q 315.0735294117649 151.548 319.7573529411767 152.94800000000004 Q 324.44117647058846 154.348 327.97205882352966 157.21800000000002 Q 331.5029411764708 160.08800000000002 333.59264705882373 164.63800000000003 Q 335.68235294117665 169.18800000000002 335.68235294117665 175.48800000000003 L 335.68235294117665 203.90800000000002 Q 335.68235294117665 210.348 339.71764705882373 213.008 Z  M 296.19411764705904 202.508 Q 296.19411764705904 209.08800000000002 303.9764705882355 209.08800000000002 Q 308.0117647058825 209.08800000000002 313.0558823529414 205.02800000000002 L 313.0558823529414 193.82800000000003 Q 310.1735294117649 193.68800000000002 308.2279411764708 193.61800000000002 Q 306.2823529411767 193.54800000000003 305.2735294117649 193.54800000000003 Q 296.19411764705904 193.54800000000003 296.19411764705904 202.508 Z  M 337.9264705882355 163.30800000000002 Q 338.6470588235296 160.508 340.6647058823532 157.07800000000003 Q 342.68235294117665 153.64800000000002 344.70000000000016 152.108 Q 357.95882352941203 153.08800000000002 363.1470588235296 164.848 Q 368.62352941176493 152.24800000000002 381.16176470588255 152.24800000000002 Q 384.908823529412 152.24800000000002 390.67352941176495 153.368 Q 390.67352941176495 157.70800000000003 389.1602941176473 163.65800000000002 Q 387.6470588235296 169.608 385.0529411764708 173.80800000000002 Q 382.60294117647084 172.96800000000002 377.70294117647086 172.40800000000002 Q 370.49705882352964 172.40800000000002 365.8852941176473 179.548 L 365.8852941176473 223.08800000000002 Q 361.1294117647061 223.92800000000003 354.71617647058844 223.92800000000003 Q 348.30294117647077 223.92800000000003 343.4029411764708 223.08800000000002 L 343.4029411764708 177.86800000000002 Q 343.4029411764708 167.36800000000002 337.9264705882355 163.30800000000002 Z  M 445.2323529411767 195.228 L 407.61764705882376 195.228 Q 407.90588235294143 201.52800000000002 410.9323529411767 205.02800000000002 Q 413.95882352941203 208.52800000000002 420.8764705882355 208.52800000000002 Q 424.3352941176473 208.52800000000002 428.8750000000003 207.54800000000003 Q 433.4147058823532 206.568 439.323529411765 204.32800000000003 Q 444.07941176470615 209.08800000000002 445.2323529411767 217.20800000000003 Q 433.70294117647086 225.18800000000002 416.9852941176473 225.18800000000002 Q 407.90588235294143 225.18800000000002 401.7808823529414 222.38800000000003 Q 395.6558823529414 219.58800000000002 391.83676470588256 214.54800000000003 Q 388.0176470588238 209.508 386.4323529411767 202.64800000000002 Q 384.8470588235296 195.788 384.8470588235296 187.668 Q 384.8470588235296 179.82800000000003 386.7926470588237 173.17800000000003 Q 388.7382352941179 166.52800000000002 392.7014705882355 161.62800000000001 Q 396.6647058823532 156.728 402.7897058823532 153.928 Q 408.91470588235313 151.12800000000001 417.1294117647061 151.12800000000001 Q 424.04705882352965 151.12800000000001 429.5955882352944 153.368 Q 435.1441176470591 155.608 439.03529411764725 159.52800000000002 Q 442.92647058823553 163.448 445.0161764705885 168.90800000000002 Q 447.1058823529414 174.36800000000002 447.1058823529414 180.80800000000002 Q 447.1058823529414 189.348 445.2323529411767 195.228 Z  M 407.47352941176496 180.108 L 426.4970588235297 180.108 L 426.4970588235297 178.568 Q 426.4970588235297 173.38800000000003 424.1191176470591 170.02800000000002 Q 421.74117647058847 166.668 416.9852941176473 166.668 Q 412.37352941176493 166.668 410.13970588235316 169.818 Q 407.90588235294143 172.96800000000002 407.47352941176496 180.108 Z " fill-rule="evenodd" fill="none" stroke="none" stroke-width="2" mask="url(#_mask_TP0YoiGf5PR0SORAf4VzaGH5Y7GVXeqZ)"/></svg>